<svg width="352" height="159" viewBox="0 0 352 159" fill="none" xmlns="http://www.w3.org/2000/svg">
<mask id="mask0_803_3524" style="mask-type:alpha" maskUnits="userSpaceOnUse" x="133" y="3" width="98" height="152">
<ellipse cx="181.912" cy="79" rx="39.5664" ry="79.8644" transform="rotate(23.2822 181.912 79)" fill="#D9D9D9"/>
</mask>
<g mask="url(#mask0_803_3524)">
<rect x="185.797" y="3.43945" width="61.8722" height="35.4476" rx="4.19189" fill="#E0C40D"/>
<rect x="120.854" y="3.43945" width="61.8722" height="35.4476" rx="4.19189" fill="#5F7163"/>
<rect x="120.854" y="42.1094" width="61.8722" height="35.4476" rx="4.19189" fill="#E4E3A2"/>
<rect x="185.797" y="42.1094" width="61.8722" height="35.4476" rx="4.19189" fill="#E4E6DB"/>
<rect x="120.854" y="80.7803" width="61.8722" height="35.4476" rx="4.19189" fill="#BEB150"/>
<rect x="120.854" y="119.45" width="61.8722" height="35.4476" rx="4.19189" fill="#829C46"/>
<rect x="185.797" y="80.7803" width="61.8722" height="35.4476" rx="4.19189" fill="#D6D9C8"/>
<rect x="185.797" y="119.45" width="61.8722" height="35.4476" rx="4.19189" fill="#C5C6A7"/>
</g>
<path d="M60.8375 20.8L10.8375 91L60.6375 90.6C60.2375 64.4 60.6375 46.8 60.8375 20.8ZM57.4375 148.4C61.0375 141.8 60.6375 106 60.6375 96.2H3.4375V92.4L66.6375 3.4H75.6375V91H100.038V96.2H75.6375C75.6375 107.4 74.6375 141.2 78.6375 148.4C79.6375 150.4 83.6375 151 86.2375 151.2V154H49.8375V151.2C52.4375 151 56.4375 150.4 57.4375 148.4Z" fill="black"/>
<path d="M212.07 78C223.67 37.4 225.47 6.59999 203.27 6.59999C180.87 6.59999 164.87 37.8 153.47 77.8C141.87 118.6 139.07 152 161.47 152C183.87 152 200.47 118.4 212.07 78ZM204.47 2.19999C232.47 2.19999 244.67 25 229.47 78C214.47 130.2 188.27 156.6 160.27 156.6C132.07 156.6 121.07 130.2 136.07 78C151.07 25.6 176.27 2.19999 204.47 2.19999Z" fill="black"/>
<path d="M310.838 20.8L260.838 91L310.638 90.6C310.238 64.4 310.638 46.8 310.838 20.8ZM307.438 148.4C311.038 141.8 310.638 106 310.638 96.2H253.438V92.4L316.638 3.4H325.638V91H350.038V96.2H325.638C325.638 107.4 324.638 141.2 328.638 148.4C329.638 150.4 333.638 151 336.238 151.2V154H299.838V151.2C302.438 151 306.438 150.4 307.438 148.4Z" fill="black"/>
</svg>
