<svg width="117" height="40" viewBox="0 0 117 40" fill="none" xmlns="http://www.w3.org/2000/svg">
<path fill-rule="evenodd" clip-rule="evenodd" d="M72.4347 30.3708C65.6498 35.3455 55.8155 37.9997 47.3482 37.9997C35.4758 37.9997 24.7876 33.6316 16.7015 26.3668C16.0664 25.7954 16.6355 25.0169 17.3979 25.4618C26.1243 30.5124 36.9141 33.5508 48.0598 33.5508C55.5766 33.5508 63.8455 32.0038 71.4488 28.7935C72.5973 28.3081 73.5579 29.5417 72.4347 30.3708Z" fill="black"/>
<path fill-rule="evenodd" clip-rule="evenodd" d="M75.2537 27.1605C74.3897 26.0583 69.5207 26.6398 67.3352 26.8976C66.6694 26.9785 66.5679 26.4021 67.1675 25.9876C71.0454 23.2728 77.4085 24.0564 78.1505 24.9664C78.8925 25.8815 77.9574 32.2262 74.3133 35.2545C73.7543 35.7197 73.2206 35.4719 73.4696 34.8551C74.288 32.8228 76.1227 28.2677 75.2537 27.1605Z" fill="black"/>
<path fill-rule="evenodd" clip-rule="evenodd" d="M67.4886 6.82202V4.18303C67.4886 3.78361 67.7935 3.51567 68.1595 3.51567H80.0369C80.4181 3.51567 80.7231 3.78861 80.7231 4.18303V6.44281C80.718 6.82202 80.3978 7.31748 79.8286 8.10109L73.6739 16.8422C75.9609 16.7867 78.375 17.1254 80.4486 18.2882C80.9162 18.551 81.0432 18.9353 81.0789 19.3144V22.1304C81.0789 22.5146 80.6519 22.9645 80.2047 22.732C76.5504 20.8261 71.6968 20.6188 67.6564 22.7522C67.2447 22.9748 66.8127 22.5298 66.8127 22.1456V19.4712C66.8127 19.0415 66.8177 18.3084 67.2497 17.6562L74.3803 7.48438H68.1746C67.7935 7.48438 67.4886 7.21644 67.4886 6.82202ZM24.1616 23.2881H20.5479C20.2023 23.2629 19.928 23.0051 19.9025 22.6764V4.22855C19.9025 3.85945 20.2125 3.56619 20.5987 3.56619H23.9683C24.3191 3.58129 24.5986 3.84935 24.624 4.18291V6.59461H24.6901C25.5693 4.26398 27.2211 3.17712 29.4472 3.17712C31.7087 3.17712 33.1217 4.26398 34.1382 6.59461C35.0124 4.26398 36.9996 3.17712 39.1291 3.17712C40.6436 3.17712 42.3005 3.79894 43.3118 5.19428C44.4553 6.74629 44.2216 9.00108 44.2216 10.9778L44.2165 22.6209C44.2165 22.99 43.9065 23.2882 43.5202 23.2882H39.9117C39.551 23.263 39.2612 22.9749 39.2612 22.6209V12.8433C39.2612 12.0647 39.3324 10.1233 39.1596 9.38528C38.8902 8.14662 38.0822 7.79773 37.0351 7.79773C36.1609 7.79773 35.2461 8.37914 34.8751 9.30944C34.5041 10.2397 34.5398 11.7967 34.5398 12.8433V22.6208C34.5398 22.9899 34.2296 23.2881 33.8434 23.2881H30.2349C29.869 23.2629 29.5844 22.9748 29.5844 22.6208L29.5793 12.8433C29.5793 10.7856 29.9198 7.75743 27.3532 7.75743C24.7562 7.75743 24.8578 10.7098 24.8578 12.8433V22.6208C24.8578 22.9899 24.5478 23.2881 24.1616 23.2881ZM90.9488 3.177C96.3106 3.177 99.2127 7.75731 99.2127 13.5814C99.2127 19.2083 96.0058 23.6724 90.9487 23.6724C85.6834 23.6724 82.817 19.092 82.817 13.3842C82.817 7.64105 85.719 3.177 90.9488 3.177ZM90.9793 6.94339C88.316 6.94339 88.1484 10.5531 88.1484 12.8028C88.1484 15.0577 88.1129 19.8705 90.9488 19.8705C93.7492 19.8705 93.8813 15.9879 93.8813 13.6218C93.8813 12.0647 93.8152 10.2042 93.3425 8.72803C92.936 7.44384 92.1278 6.94339 90.9793 6.94339ZM106.165 23.2881H102.567C102.206 23.2629 101.916 22.9748 101.916 22.6208L101.911 4.16781C101.942 3.82914 102.242 3.56619 102.608 3.56619H105.957C106.272 3.58129 106.531 3.79383 106.602 4.08187V6.90297H106.668C107.68 4.38024 109.098 3.177 111.593 3.177C113.215 3.177 114.795 3.75829 115.812 5.35084C116.757 6.82701 116.757 9.30944 116.757 11.0941V22.7067C116.716 23.0303 116.417 23.2881 116.061 23.2881H112.437C112.107 23.2629 111.832 23.0202 111.797 22.7067V12.6865C111.797 10.6694 112.03 7.71678 109.535 7.71678C108.656 7.71678 107.848 8.3033 107.446 9.19307C106.938 10.3206 106.872 11.4429 106.872 12.6866V22.6208C106.867 22.9899 106.552 23.2881 106.165 23.2881ZM58.0202 14.4763C58.0202 15.8766 58.0558 17.0445 57.3441 18.2881C56.7699 19.2993 55.8551 19.921 54.8437 19.921C53.4563 19.921 52.643 18.8696 52.643 17.3175C52.643 14.2537 55.4028 13.6977 58.0202 13.6977V14.4763ZM61.6642 23.2376C61.4254 23.4499 61.0798 23.4651 60.8104 23.3235C59.611 22.3326 59.3924 21.8726 58.7368 20.9272C56.7546 22.9393 55.3469 23.541 52.7802 23.541C49.7359 23.541 47.3726 21.6754 47.3726 17.9394C47.3726 15.0223 48.9583 13.0354 51.225 12.0647C53.1869 11.2052 55.9263 11.0536 58.0203 10.8159V10.3509C58.0203 9.49643 58.0863 8.48529 57.578 7.74721C57.141 7.08496 56.2972 6.81191 55.5502 6.81191C54.1728 6.81191 52.948 7.51457 52.6482 8.97065C52.5871 9.29422 52.3482 9.61269 52.0179 9.6279L48.5162 9.25381C48.2215 9.18807 47.891 8.95044 47.9774 8.50051C48.7805 4.27408 52.6227 3 56.0585 3C57.817 3 60.1142 3.46515 61.5017 4.78976C63.2601 6.42272 63.0924 8.60155 63.0924 10.9727V16.5743C63.0924 18.2579 63.7939 18.9958 64.4545 19.9059C64.6834 20.2295 64.734 20.6188 64.4393 20.8614C63.7024 21.4732 62.3911 22.6107 61.6694 23.2477L61.6644 23.2376M10.6475 14.4763C10.6475 15.8766 10.6831 17.0445 9.97151 18.2881C9.3973 19.2993 8.48753 19.921 7.47105 19.921C6.08362 19.921 5.27543 18.8696 5.27543 17.3175C5.27543 14.2537 8.03522 13.6977 10.6475 13.6977V14.4763ZM14.2915 23.2376C14.0528 23.4499 13.7072 23.4651 13.4378 23.3235C12.2384 22.3326 12.0248 21.8726 11.3642 20.9272C9.38201 22.9393 7.97941 23.541 5.4076 23.541C2.36842 23.541 0 21.6754 0 17.9394C0 15.0223 1.59081 13.0354 3.8524 12.0647C5.81426 11.2052 8.55362 11.0536 10.6475 10.8159V10.3509C10.6475 9.49643 10.7136 8.48529 10.2104 7.74721C9.76824 7.08496 8.92467 6.81191 8.18256 6.81191C6.8053 6.81191 5.57538 7.51457 5.27543 8.97065C5.21448 9.29422 4.9756 9.61269 4.65031 9.6279L1.14352 9.25381C0.848707 9.18807 0.523538 8.95044 0.604801 8.50051C1.41288 4.27408 5.25009 3 8.68579 3C10.4441 3 12.7415 3.46515 14.129 4.78976C15.8874 6.42272 15.7197 8.60155 15.7197 10.9727V16.5743C15.7197 18.2579 16.4211 18.9958 17.0818 19.9059C17.3156 20.2295 17.3664 20.6188 17.0716 20.8614C16.3347 21.4732 15.0235 22.6107 14.3018 23.2477L14.2915 23.2376Z" fill="black"/>
</svg>
