<svg width="24" height="24" viewBox="0 0 24 24" fill="none" xmlns="http://www.w3.org/2000/svg">
<path fill-rule="evenodd" clip-rule="evenodd" d="M14.0761 5.57613C14.2714 5.38087 14.588 5.38087 14.7832 5.57613L20.8532 11.6461C20.947 11.7399 20.9997 11.8671 20.9997 11.9997C20.9997 12.1323 20.947 12.2595 20.8532 12.3532L14.7832 18.4232C14.588 18.6185 14.2714 18.6185 14.0761 18.4232C13.8809 18.228 13.8809 17.9114 14.0761 17.7161L19.7926 11.9997L14.0761 6.28324C13.8809 6.08798 13.8809 5.7714 14.0761 5.57613Z" fill="#fff"/>
<path fill-rule="evenodd" clip-rule="evenodd" d="M3 12C3 11.7239 3.22386 11.5 3.5 11.5H20.33C20.6061 11.5 20.83 11.7239 20.83 12C20.83 12.2761 20.6061 12.5 20.33 12.5H3.5C3.22386 12.5 3 12.2761 3 12Z" fill="#fff"/>
</svg>
