<svg xmlns="http://www.w3.org/2000/svg" width="24" height="24" viewBox="0 0 24 24" fill="none">
<path fill-rule="evenodd" clip-rule="evenodd" d="M4.64645 19.3536C4.45118 19.1583 4.45118 18.8417 4.64645 18.6464L18.6464 4.64645C18.8417 4.45118 19.1583 4.45118 19.3536 4.64645C19.5488 4.84171 19.5488 5.15829 19.3536 5.35355L5.35355 19.3536C5.15829 19.5488 4.84171 19.5488 4.64645 19.3536Z" fill="black"/>
<path fill-rule="evenodd" clip-rule="evenodd" d="M19 15.7695C18.7239 15.7695 18.5 15.5457 18.5 15.2695V5.49953H8.73C8.45386 5.49953 8.23 5.27567 8.23 4.99953C8.23 4.72339 8.45386 4.49953 8.73 4.49953H19C19.2761 4.49953 19.5 4.72339 19.5 4.99953V15.2695C19.5 15.5457 19.2761 15.7695 19 15.7695Z" fill="black"/>
</svg>