<svg width="1242" height="514" viewBox="0 0 1242 514" fill="none" xmlns="http://www.w3.org/2000/svg">
<g clip-path="url(#clip0_1229_4173)">
<rect width="394" height="106" rx="10" fill="#368781"/>
<rect y="136" width="182" height="378" rx="10" fill="#6DBAC4"/>
<rect x="424" width="182" height="106" rx="10" fill="#5F7163"/>
<rect x="636" width="182" height="106" rx="10" fill="#E0C40D"/>
<rect x="1060" width="182" height="378" rx="10" fill="#DCCAC8"/>
<rect x="212" y="136" width="182" height="106" rx="10" fill="#466F5D"/>
<rect x="424" y="136" width="394" height="242" rx="10" fill="#E4E3A2"/>
<rect x="848" width="182" height="242" rx="10" fill="#C1D7D7"/>
<rect x="212" y="272" width="182" height="242" rx="10" fill="#E3E8E2"/>
<rect x="848" y="272" width="182" height="106" rx="10" fill="#EA8969"/>
<rect x="424" y="408" width="182" height="106" rx="10" fill="#829C46"/>
<rect x="636" y="408" width="394" height="106" rx="10" fill="#C5C6A7"/>
<rect x="1060" y="408" width="182" height="106" rx="10" fill="#EFDED7"/>
</g>
<defs>
<clipPath id="clip0_1229_4173">
<rect width="1242" height="514" fill="white"/>
</clipPath>
</defs>
</svg>
