<svg xmlns="http://www.w3.org/2000/svg" width="20" height="20" viewBox="0 0 20 20" fill="none">
  <path fill-rule="evenodd" clip-rule="evenodd" d="M9.99935 2.16797C5.67549 2.16797 2.16602 5.67744 2.16602 10.0013C2.16602 14.3252 5.67549 17.8346 9.99935 17.8346C14.3232 17.8346 17.8327 14.3252 17.8327 10.0013C17.8327 5.67744 14.3232 2.16797 9.99935 2.16797ZM1.16602 10.0013C1.16602 5.12516 5.12321 1.16797 9.99935 1.16797C14.8755 1.16797 18.8327 5.12516 18.8327 10.0013C18.8327 14.8774 14.8755 18.8346 9.99935 18.8346C5.12321 18.8346 1.16602 14.8774 1.16602 10.0013ZM9.69141 5.75781C9.96755 5.75781 10.1914 5.98167 10.1914 6.25781V9.67448C10.1914 9.82934 10.2488 10.036 10.3653 10.2403C10.4818 10.4446 10.6304 10.5991 10.763 10.6777L10.7643 10.6785L13.3476 12.2201C13.5848 12.3616 13.6623 12.6686 13.5208 12.9057C13.3793 13.1428 13.0723 13.2203 12.8352 13.0788L10.2532 11.538C10.2529 11.5378 10.2527 11.5377 10.2525 11.5376C9.93537 11.3494 9.67585 11.0499 9.49665 10.7357C9.31732 10.4212 9.19141 10.0446 9.19141 9.67448V6.25781C9.19141 5.98167 9.41526 5.75781 9.69141 5.75781Z" fill="black"/>
</svg>