<svg width="24" height="24" viewBox="0 0 24 24" fill="none" xmlns="http://www.w3.org/2000/svg">
<path fill-rule="evenodd" clip-rule="evenodd" d="M2.2253 2.2253C2.52571 1.9249 3.01276 1.9249 3.31316 2.2253L12 10.9121L20.6868 2.2253C20.9872 1.9249 21.4743 1.9249 21.7747 2.2253C22.0751 2.52571 22.0751 3.01276 21.7747 3.31316L13.0879 12L21.7747 20.6868C22.0751 20.9872 22.0751 21.4743 21.7747 21.7747C21.4743 22.0751 20.9872 22.0751 20.6868 21.7747L12 13.0879L3.31316 21.7747C3.01276 22.0751 2.52571 22.0751 2.2253 21.7747C1.9249 21.4743 1.9249 20.9872 2.2253 20.6868L10.9121 12L2.2253 3.31316C1.9249 3.01276 1.9249 2.52571 2.2253 2.2253Z" fill="#000"/>
</svg>
