<svg width="1242" height="514" viewBox="0 0 1242 514" fill="none" xmlns="http://www.w3.org/2000/svg">
<rect width="182" height="106" rx="10" fill="#BED4D5"/>
<rect x="212" width="182" height="106" rx="10" fill="#368781"/>
<rect x="424" width="182" height="106" rx="10" fill="#5F7163"/>
<rect x="636" width="182" height="106" rx="10" fill="#E0C40D"/>
<rect x="848" width="182" height="106" rx="10" fill="#AD8561"/>
<rect x="1060" width="182" height="106" rx="10" fill="#DCCAC8"/>
<rect y="136" width="182" height="106" rx="10" fill="#CAD4CC"/>
<rect x="212" y="136" width="182" height="106" rx="10" fill="#466F5D"/>
<rect x="424" y="136" width="182" height="106" rx="10" fill="#E4E3A2"/>
<rect x="636" y="136" width="182" height="106" rx="10" fill="#E4E6DB"/>
<rect x="848" y="136" width="182" height="106" rx="10" fill="#C1D7D7"/>
<rect x="1060" y="136" width="182" height="106" rx="10" fill="#F6B58F"/>
<rect y="272" width="182" height="106" rx="10" fill="#C1DFDD"/>
<rect x="212" y="272" width="182" height="106" rx="10" fill="#E3E8E2"/>
<rect x="424" y="272" width="182" height="106" rx="10" fill="#BEB150"/>
<rect x="636" y="272" width="182" height="106" rx="10" fill="#D6D9C8"/>
<rect x="848" y="272" width="182" height="106" rx="10" fill="#EA8969"/>
<rect x="1060" y="272" width="182" height="106" rx="10" fill="#794642"/>
<rect y="408" width="182" height="106" rx="10" fill="#6DBAC4"/>
<rect x="212" y="408" width="182" height="106" rx="10" fill="#DADDDC"/>
<rect x="424" y="408" width="182" height="106" rx="10" fill="#829C46"/>
<rect x="636" y="408" width="182" height="106" rx="10" fill="#C5C6A7"/>
<rect x="848" y="408" width="182" height="106" rx="10" fill="#A74836"/>
<rect x="1060" y="408" width="182" height="106" rx="10" fill="#EFDED7"/>
</svg>
