<svg width="138" height="40" viewBox="0 0 138 40" fill="none" xmlns="http://www.w3.org/2000/svg">
<g clip-path="url(#clip0_89_1736)">
<path d="M0 3V37.9553H49.9767V3H0ZM83.2333 3C80.7058 3 78.871 3.35549 77.4627 4.27639C75.9903 5.22649 75.3114 6.83372 75.3114 9.33493V14.7581C75.3114 17.2766 76.0315 18.9719 77.4627 19.8162C78.6187 20.6257 80.4856 21.0017 83.2333 21.0017C85.9489 21.0017 87.8984 20.6403 89.0085 19.8618C90.4397 18.9678 91.1599 17.1913 91.1599 14.7581V9.33493C91.1599 6.95191 90.4489 5.25661 89.0085 4.27639C87.825 3.45087 85.825 3 83.2333 3ZM57.3987 3.31944V20.5906H66.6096C71.1371 20.5906 72.8389 18.7228 72.8389 13.7099V9.92726C72.8389 5.17218 70.9261 3.31944 66.0087 3.31944H57.3987ZM93.9993 3.31944V20.5906H105.045V17.7207H97.8938V3.31944H93.9993ZM107.196 3.31944V20.5906H115.302C117.802 20.5906 118.848 20.105 119.334 19.771C120.164 19.2143 121.215 17.9584 121.215 15.9884C121.21 13.6661 120.412 11.3451 116.586 11.4314C119.628 11.1525 120.297 9.66669 120.297 7.5123C120.297 5.60251 119.517 4.63918 118.65 4.09431C117.912 3.63203 117.036 3.31944 115.21 3.31944H107.196ZM121.577 3.31944C122.297 4.63963 127.398 14.257 127.398 14.257V20.5906H131.563C131.563 19.7331 131.563 14.257 131.563 14.257C131.563 14.257 136.815 4.65013 137.568 3.31944H133.903L129.591 11.1124L125.472 3.31944H121.577ZM82.1829 5.73485C82.4948 5.71112 82.8618 5.73485 83.2333 5.73485C86.2241 5.73485 87.2654 6.34635 87.2654 9.33493V14.5304C87.2654 17.5938 86.2241 18.313 83.2333 18.313C80.2517 18.313 79.2058 17.5938 79.2058 14.5304V9.33493C79.2058 6.71964 79.9811 5.89914 82.1829 5.73485ZM111.045 5.78003H114.848C116.141 5.78003 116.949 6.83053 116.949 8.24108C116.949 10.4078 115.944 10.4571 112.962 10.5652V12.5708C115.618 12.5603 117.733 12.3568 117.733 15.1227C117.733 16.5127 116.866 18.0853 114.573 18.0853H111.045V18.0387V5.78003ZM61.2931 5.82566H66.0087C67.3527 5.82566 68.9903 6.61194 68.9903 9.4262V14.1201C68.9903 17.147 67.3527 17.9032 66.0087 17.9032H61.2931V5.82566ZM5.90913 7.55748H11.5889C17.5026 7.55748 22.4457 13.4306 22.4457 20.4099C22.4471 27.589 17.5026 33.3978 11.5889 33.3978H5.90913V7.55748ZM38.3887 7.55748H44.1143V33.3978H38.3887C32.4722 33.3978 27.5305 27.589 27.5305 20.4099C27.5305 13.4306 32.4722 7.55748 38.3887 7.55748ZM135.962 17.3104C135.068 17.3104 134.316 18.0095 134.316 18.9514C134.316 19.9006 135.068 20.5906 135.962 20.5906C136.848 20.5924 137.614 19.8997 137.614 18.9514C137.614 18.0095 136.848 17.3104 135.962 17.3104ZM135.962 17.5838C136.71 17.5838 137.288 18.1683 137.288 18.9514C137.288 19.7505 136.71 20.3181 135.962 20.3181C135.205 20.3181 134.637 19.7505 134.637 18.9514C134.637 18.1683 135.205 17.5838 135.962 17.5838ZM135.325 17.9935V19.9084H135.641V19.0869H135.962L136.467 19.9084H136.742L136.238 19.0869C136.517 19.0523 136.692 18.8729 136.692 18.5402C136.692 18.1656 136.508 17.9935 136.054 17.9935H135.325ZM135.641 18.2678H136.004C136.343 18.2678 136.416 18.3623 136.416 18.5402C136.426 18.7515 136.32 18.8597 135.962 18.8597H135.641V18.2678ZM101.1 24.4654C99.4121 24.4654 98.1919 24.7296 97.2516 25.4223C96.2699 26.137 95.7883 27.3253 95.7883 29.2049V33.3061C95.7883 35.199 96.2974 36.4548 97.2516 37.0887C98.0268 37.697 99.2699 38 101.1 38C102.912 38 104.21 37.7189 104.949 37.1343C105.907 36.4617 106.412 35.1346 106.412 33.3061V29.2049C106.412 27.4143 105.912 26.1589 104.949 25.4223C104.155 24.8022 102.83 24.4654 101.1 24.4654ZM119.196 24.7383V25.3767H120.022V27.6547H120.66V25.3767H121.485V24.7383H119.196ZM121.811 24.7383V27.6547H122.403V25.7413L123.091 27.1998H123.366L124.1 25.5592L124.141 27.6547H124.692V24.7383H123.962L123.224 26.2428L122.54 24.7383H121.811ZM80.5774 24.7848V37.9096H83.2792V29.3875L86.2608 35.7676H87.5865L90.9305 28.5209L91.0222 37.9096H93.591V24.7848H90.2424L86.8984 31.6655L83.8297 24.7848H80.5774ZM68.7609 24.83V27.7017H72.4719V37.9553H75.4031V27.7017H79.0682V24.83H68.7609ZM61.4766 24.8752L56.7565 37.9096H59.4583L60.5592 34.9932H65.5087L66.6096 37.9096H69.2655L64.6371 24.8752H61.4766ZM111.687 24.9203C109.339 24.9203 108.435 25.9631 108.435 27.7469V29.6599C108.435 31.426 109.173 32.0137 111.132 32.3039L113.926 32.7142C114.609 32.8219 114.797 33.0377 114.797 33.6251V34.8563C114.797 35.3624 114.577 35.6307 114.063 35.6307H108.476V36.997C108.967 37.5656 110.027 37.7289 110.811 37.7262H114.251C116.458 37.7262 117.224 36.8044 117.224 34.9466V32.9866C117.224 31.1348 116.66 30.5762 114.935 30.344L111.687 29.889C111.146 29.8178 110.811 29.6275 110.811 29.0224V27.8825C110.811 27.2541 110.953 27.0629 111.499 27.0629H116.77V25.6496C116.343 25.1116 115.215 24.9203 114.435 24.9203H111.687ZM100.412 26.5157C100.623 26.4984 100.852 26.5157 101.1 26.5157C103.096 26.5157 103.807 27.0058 103.807 29.2506V33.1235C103.807 35.4249 103.096 35.9497 101.1 35.9497C99.1093 35.9497 98.3983 35.4249 98.3983 33.1235V29.2506C98.3983 27.286 98.9442 26.6398 100.412 26.5157ZM63.0316 28.4762L64.4078 32.1214L61.5683 32.167L63.0316 28.4762Z" fill="black"/>
</g>
<defs>
<clipPath id="clip0_89_1736">
<rect width="137.614" height="35" fill="white" transform="translate(0 3)"/>
</clipPath>
</defs>
</svg>
