<svg xmlns="http://www.w3.org/2000/svg" width="18" height="18" viewBox="0 0 18 18" fill="none">
<path fill-rule="evenodd" clip-rule="evenodd" d="M3.9821 8.75C3.43906 8.75 2.95666 8.9942 2.63606 9.38475L2.6205 9.40371L2.60931 9.41489C2.34352 9.7587 2.19885 10.2004 2.24479 10.677L2.24557 10.6851L2.54515 14.4306C2.60553 15.0457 2.65594 15.3819 2.83483 15.6052C2.98168 15.7885 3.31679 16 4.2821 16H13.7171C14.6824 16 15.0175 15.7885 15.1644 15.6052C15.3433 15.3819 15.3937 15.0457 15.454 14.4307L15.7548 10.6717C15.8069 10.1855 15.6524 9.74057 15.365 9.39445L15.2849 9.29802C14.9722 8.96269 14.5238 8.75 14.0171 8.75H3.9821ZM15.381 9.40605C15.3852 9.4102 15.3838 9.40904 15.3792 9.40421L15.381 9.40605ZM1.87957 8.73042C2.38402 8.12751 3.13934 7.75 3.9821 7.75H14.0171C14.8622 7.75 15.6108 8.12952 16.1071 8.71858C16.1158 8.72796 16.1298 8.74357 16.1449 8.76375C16.1503 8.77099 16.1585 8.78217 16.168 8.79702C16.593 9.32896 16.8286 10.0199 16.75 10.7712L16.4498 14.5238C16.4478 14.5446 16.4456 14.5656 16.4436 14.5868C16.3932 15.1061 16.331 15.7483 15.9448 16.2304C15.5104 16.7727 14.7843 17 13.7171 17H4.2821C3.2149 17 2.48876 16.7727 2.05436 16.2304C1.6682 15.7483 1.60595 15.1061 1.55561 14.5868C1.55355 14.5656 1.55152 14.5446 1.54948 14.5238L1.54861 14.5149L1.249 10.7687C1.17717 10.0117 1.41551 9.30825 1.84352 8.77096L1.86109 8.7489L1.87957 8.73042Z" fill="black"/>
<path fill-rule="evenodd" clip-rule="evenodd" d="M3.61605 2.51449C3.29693 2.83361 3.125 3.43236 3.125 4.71094V8.57344C3.125 8.84958 2.90114 9.07344 2.625 9.07344C2.34886 9.07344 2.125 8.84958 2.125 8.57344V4.71094C2.125 3.43951 2.27182 2.44451 2.90895 1.80738C3.54608 1.17026 4.54107 1.02344 5.8125 1.02344H6.765C7.28619 1.02344 7.68189 1.10038 8.00971 1.29735C8.31464 1.48057 8.51126 1.74311 8.67664 1.96393C8.6828 1.97216 8.68892 1.98033 8.695 1.98844L8.69557 1.98919L9.64662 3.26226C9.7788 3.43568 9.81845 3.47916 9.86771 3.50904C9.90384 3.53095 9.99542 3.57344 10.2675 3.57344H12.18C13.4514 3.57344 14.4464 3.72026 15.0836 4.35738C15.7207 4.99451 15.8675 5.98951 15.8675 7.26094V8.60344C15.8675 8.87958 15.6436 9.10344 15.3675 9.10344C15.0914 9.10344 14.8675 8.87958 14.8675 8.60344V7.26094C14.8675 5.98236 14.6956 5.38361 14.3764 5.06449C14.0573 4.74537 13.4586 4.57344 12.18 4.57344H10.2675C9.90208 4.57344 9.60366 4.51843 9.34916 4.36409C9.12298 4.22692 8.97568 4.03254 8.87023 3.89339C8.86323 3.88416 8.85642 3.87517 8.84978 3.86646L8.84692 3.8627L8.84694 3.86268L7.895 2.58844C7.89489 2.58829 7.89478 2.58814 7.89466 2.58799C7.70414 2.33397 7.61518 2.22693 7.49467 2.15452C7.38561 2.08899 7.19631 2.02344 6.765 2.02344H5.8125C4.53393 2.02344 3.93517 2.19537 3.61605 2.51449Z" fill="black"/>
<path fill-rule="evenodd" clip-rule="evenodd" d="M6.57227 12.75C6.57227 12.4739 6.79612 12.25 7.07227 12.25H10.9273C11.2034 12.25 11.4273 12.4739 11.4273 12.75C11.4273 13.0261 11.2034 13.25 10.9273 13.25H7.07227C6.79612 13.25 6.57227 13.0261 6.57227 12.75Z" fill="black"/>
</svg>