<svg width="122" height="40" viewBox="0 0 122 40" fill="none" xmlns="http://www.w3.org/2000/svg">
<g clip-path="url(#clip0_89_1698)">
<path d="M30.0037 14.129H15.7655V18.3538H25.8641C25.3637 24.2674 20.4361 26.8058 15.7825 26.8058C14.3083 26.8122 12.8476 26.525 11.4856 25.9607C10.1236 25.3964 8.88764 24.5665 7.84992 23.5194C6.81219 22.4722 5.99347 21.2288 5.44155 19.8618C4.88963 18.4948 4.61557 17.0315 4.63537 15.5574C4.63537 9.16156 9.58689 4.23733 15.7962 4.23733C20.5862 4.23733 23.4088 7.29081 23.4088 7.29081L26.3656 4.2271C26.3656 4.2271 22.5673 0 15.6415 0C6.82227 0 0 7.4432 0 15.4823C0 23.3599 6.41742 31.042 15.8644 31.042C24.1742 31.042 30.2573 25.349 30.2573 16.9311C30.2573 15.1548 29.9991 14.129 29.9991 14.129H30.0037Z" fill="black"/>
<path d="M41.6691 11.0685C35.826 11.0685 31.6387 15.6368 31.6387 20.9625C31.6387 26.3689 35.6986 31.0213 41.7373 31.0213C47.2029 31.0213 51.6802 26.8442 51.6802 21.0785C51.6802 14.4825 46.4716 11.0674 41.6691 11.0674V11.0685ZM41.7259 14.9874C44.5986 14.9874 47.3211 17.3108 47.3211 21.0534C47.3211 24.7153 44.61 27.1058 41.7123 27.1058C38.528 27.1058 36.0261 24.5561 36.0261 21.0239C36.0261 17.5667 38.5053 14.9874 41.735 14.9874H41.7259Z" fill="black"/>
<path d="M63.4816 11.0685C57.6385 11.0685 53.4512 15.6368 53.4512 20.9625C53.4512 26.3689 57.5111 31.0213 63.5498 31.0213C69.0154 31.0213 73.4927 26.8442 73.4927 21.0785C73.4927 14.4825 68.2841 11.0674 63.4816 11.0674V11.0685ZM63.5384 14.9874C66.4111 14.9874 69.1336 17.3108 69.1336 21.0534C69.1336 24.7153 66.4225 27.1058 63.5248 27.1058C60.3405 27.1058 57.8386 24.5561 57.8386 21.0239C57.8386 17.5667 60.3178 14.9874 63.5475 14.9874H63.5384Z" fill="black"/>
<path d="M84.8766 11.0801C79.5134 11.0801 75.2988 15.7769 75.2988 21.0491C75.2988 27.0537 80.1855 31.0363 84.7834 31.0363C87.6264 31.0363 89.139 29.907 90.2421 28.6117V30.5791C90.2421 34.0215 88.1519 36.0833 84.9972 36.0833C81.9494 36.0833 80.4209 33.8168 79.8796 32.5317L76.0449 34.1239C77.405 37.0011 80.1434 40 85.029 40C90.374 40 94.4248 36.6417 94.4248 29.5977V11.6794H90.258V13.3693C88.9729 11.9819 87.2125 11.0801 84.8789 11.0801H84.8766ZM85.2633 14.9922C87.8926 14.9922 90.5924 17.2371 90.5924 21.0707C90.5924 24.968 87.8971 27.1151 85.2053 27.1151C82.3463 27.1151 79.6863 24.7951 79.6863 21.1071C79.6863 17.2769 82.4498 14.9922 85.2633 14.9922Z" fill="black"/>
<path d="M113.048 11.0566C107.99 11.0566 103.742 15.0825 103.742 21.0188C103.742 27.3032 108.476 31.0299 113.522 31.0299C117.744 31.0299 120.346 28.7213 121.881 26.6515L118.432 24.3566C117.537 25.744 116.04 27.103 113.544 27.103C110.74 27.103 109.45 25.5678 108.65 24.078L122.028 18.5283L121.345 16.902C120.054 13.7178 117.038 11.0566 113.048 11.0566ZM113.222 14.8937C115.045 14.8937 116.356 15.8626 116.914 17.0248L107.98 20.7584C107.593 17.8675 110.334 14.8937 113.211 14.8937H113.222Z" fill="black"/>
<path d="M97.3555 30.4387H101.75V1.0332H97.3555V30.4387Z" fill="black"/>
</g>
<defs>
<clipPath id="clip0_89_1698">
<rect width="122" height="40" fill="white"/>
</clipPath>
</defs>
</svg>
