<svg width="89" height="40" viewBox="0 0 89 40" fill="none" xmlns="http://www.w3.org/2000/svg">
<g clip-path="url(#clip0_89_1712)">
<path fill-rule="evenodd" clip-rule="evenodd" d="M15.7986 15.8185C16.9987 11.4333 18.1565 6.72565 21.4034 3.33478C23.3799 1.27529 26.1752 0 29.0698 0C32.2041 0 34.4067 2.41013 34.4067 5.43623C34.4067 11.8112 28.251 16.575 22.3917 17.6396L22.0531 18.9007L21.1921 22.1512C20.4014 25.1499 19.3708 28.0082 17.5633 30.5579C20.5139 31.3567 23.3942 32.3233 26.3875 32.9675C35.0141 34.8168 43.8663 35.6435 52.6758 35.6435C60.06 35.6435 67.4443 35.4059 74.7858 34.4945C79.3881 33.9341 83.9628 33.2479 88.4245 31.9722L88.8486 33.7103C83.0458 35.5869 77.1442 36.9329 71.1157 37.8434C63.703 38.9646 56.1639 39.6088 48.6671 39.6088C37.3863 39.6088 25.9924 37.2416 15.5303 33.066C13.4692 35.0977 10.2503 36.3725 7.35577 36.3725C4.85683 36.3725 0 34.9992 0 31.8053C0 29.1572 3.60024 28.0921 5.71831 28.0921C7.80788 28.0921 9.92547 28.5266 11.9585 28.9748C13.8928 25.6122 14.6128 21.6045 15.3897 17.8502C13.6733 17.7149 11.983 17.3519 10.3638 16.771L11.0272 14.9919C12.5939 15.5381 14.1326 15.7766 15.7986 15.8185Z" fill="black"/>
<path fill-rule="evenodd" clip-rule="evenodd" d="M30.356 25.1914V25.542C30.356 27.4898 31.7817 28.0643 33.5749 28.0643C36.639 28.0643 39.6038 26.831 42.3003 25.4577L44.4179 17.1353H50.6866L48.5263 25.7244C48.4591 25.9613 48.426 26.2065 48.428 26.4526C48.428 27.167 48.7804 27.5176 49.5013 27.5176C50.9269 27.5176 52.3953 26.6627 53.4686 25.7946C53.4548 25.5698 53.4396 25.3465 53.4396 25.1358C53.4396 20.1199 58.3957 16.8134 63.0683 16.8134C64.2684 16.8134 65.553 17.1358 66.5417 17.8361L65.8498 20.4145C65.2281 19.6718 64.4806 19.0973 63.4644 19.0973C60.7669 19.0973 59.6381 23.2728 59.6381 25.3879C59.6381 26.8037 60.6121 27.6576 62.0097 27.6576C64.0428 27.6576 65.6242 26.3126 67.0926 25.0792C67.1629 23.5381 67.5295 22.1936 68.4052 20.89C70.1139 18.3823 72.867 16.7569 75.9306 16.7569C77.4982 16.7569 78.8531 17.2612 79.8836 18.4243L80.1805 17.1353H85.9833L83.7384 25.7946C83.6672 26.0322 83.5964 26.2843 83.5964 26.5228C83.5964 27.2518 84.3021 27.5737 84.9523 27.5737C85.7563 27.5737 86.4772 27.1529 87.1402 26.7471L87.6056 28.5403L84.1744 30.1936C83.3139 30.6144 82.3109 30.8388 81.3511 30.8388C79.7132 30.8388 78.4851 29.8712 77.8786 28.4282C76.4947 30.096 75.0401 30.9227 72.8233 30.9227C70.4516 30.9227 68.5316 29.6054 67.5856 27.504C65.609 29.3957 62.885 30.9924 60.0602 30.9924C57.6748 30.9924 55.288 30.0809 54.0888 27.9385C51.9 29.5357 49.1042 30.9505 46.3232 30.9505C44.3324 30.9505 42.8218 29.6756 42.2286 27.8541C39.0805 29.6059 35.8046 30.909 32.1341 30.909C28.3785 30.909 23.9453 29.0733 23.9453 24.73C23.9453 19.8541 29.7624 16.6876 34.1249 16.6876C36.3697 16.6876 40.1533 17.5142 40.1533 20.3726C40.1533 23.8049 35.1411 25.4167 32.3739 25.4167C31.6829 25.4157 31.0195 25.3309 30.356 25.1914ZM45.5192 12.1614C45.5192 10.256 47.6515 9.59766 49.2472 9.59766C50.6728 9.59766 52.4518 10.3263 52.4518 11.9654C52.4518 13.9127 50.348 14.5711 48.7101 14.5711C47.2417 14.5711 45.5192 13.8566 45.5192 12.1614Z" fill="black"/>
<path fill-rule="evenodd" clip-rule="evenodd" d="M22.9129 15.3848C27.12 14.6283 31.8501 10.1163 31.8501 5.70323C31.8501 4.34405 31.3277 2.59277 29.6755 2.59277C27.7132 2.59277 26.2871 4.56791 25.6094 6.17922C24.367 9.12143 23.7178 12.3021 22.9129 15.3848ZM10.1356 31.4974C8.65297 30.937 7.12853 30.5308 5.51861 30.5308C4.62912 30.5308 2.69531 30.7546 2.69531 32.0153C2.69531 33.2901 4.67186 33.6822 5.61786 33.6822C7.39685 33.6822 8.96403 32.7581 10.1356 31.4974ZM30.6357 23.3989C30.9606 23.455 31.2854 23.5111 31.6102 23.5111C33.6433 23.5111 36.0572 22.4601 36.0572 20.1339C36.0572 19.2653 35.4361 18.6347 34.5746 18.6347C32.1749 18.6352 31.1439 21.5072 30.6357 23.3989ZM78.0178 25.2482L78.8783 21.9134C78.9638 21.6052 79.0621 21.2974 79.0621 20.961C79.0621 19.8544 77.9332 19.0975 76.9017 19.0975C75.7026 19.0975 74.9679 20.0641 74.5021 21.0595C73.9231 22.3065 73.1747 24.6181 73.1747 26.0187C73.1747 27.0414 73.7963 28.065 74.9109 28.065C76.5494 28.0646 77.6364 26.7054 78.0178 25.2482Z" fill="white"/>
</g>
<defs>
<clipPath id="clip0_89_1712">
<rect width="89" height="40" fill="white"/>
</clipPath>
</defs>
</svg>
