<svg width="20" height="20" viewBox="0 0 20 20" fill="none" xmlns="http://www.w3.org/2000/svg">
<path fill-rule="evenodd" clip-rule="evenodd" d="M10.0004 6.49219C8.84059 6.49219 7.90039 7.43239 7.90039 8.59219C7.90039 9.75198 8.84059 10.6922 10.0004 10.6922C11.1602 10.6922 12.1004 9.75198 12.1004 8.59219C12.1004 7.43239 11.1602 6.49219 10.0004 6.49219ZM6.90039 8.59219C6.90039 6.8801 8.28831 5.49219 10.0004 5.49219C11.7125 5.49219 13.1004 6.8801 13.1004 8.59219C13.1004 10.3043 11.7125 11.6922 10.0004 11.6922C8.28831 11.6922 6.90039 10.3043 6.90039 8.59219Z" fill="black"/>
<path fill-rule="evenodd" clip-rule="evenodd" d="M10.0025 2.16797C7.10827 2.16601 4.2637 3.84818 3.50404 7.18689C2.6077 11.1469 5.06326 14.5651 7.33792 16.7575C8.82825 18.1886 11.1718 18.1874 12.6525 16.7582L12.6534 16.7573C14.9364 14.565 17.3919 11.1549 16.4954 7.19503L16.4954 7.19501C15.7397 3.85611 12.897 2.16993 10.0025 2.16797ZM17.4708 6.97424C16.5931 3.09649 13.2734 1.17018 10.0032 1.16797C6.73301 1.16576 3.411 3.08766 2.52888 6.9654L2.52877 6.96591C1.50863 11.4722 4.31929 15.2371 6.64446 17.478L6.64509 17.4786C8.5213 19.2805 11.4774 19.2818 13.3466 17.4781C15.6802 15.237 18.4909 11.4807 17.4708 6.97424Z" fill="black"/>
</svg>
