<svg width="244" height="40" viewBox="0 0 244 40" fill="none" xmlns="http://www.w3.org/2000/svg">
<g clip-path="url(#clip0_89_1722)">
<path d="M0 10.4H3.57867L8.784 19.0667C9.19067 19.7333 9.516 20.2667 9.882 20.9333C10.248 20.2667 10.5733 19.7333 10.98 19.0667L16.226 10.4H19.52V29.6H15.616V20.0444C15.616 19.4667 15.616 18.9333 15.6567 18.4C15.4127 18.8444 15.128 19.3778 14.8027 19.9111L9.84133 28.1333L4.79867 19.7778C4.47333 19.2444 4.22933 18.7556 3.98533 18.2222C4.026 18.7556 4.026 19.2889 4.026 19.8667V29.5556H0.0813333V10.4H0ZM32.33 21.2889L34.3633 16.8444C34.6073 16.3111 34.8513 15.7778 35.014 15.3333C35.1767 15.7778 35.4207 16.3111 35.6647 16.8444L37.7387 21.2889H32.33ZM41.602 29.6H45.9533L36.9253 10.4H33.306L24.278 29.6H28.548L30.5407 25.2444H39.6093L41.602 29.6ZM54.5747 14.4444H61.7727C63.806 14.4444 64.538 15.2 64.538 16.5778C64.538 17.9556 63.7653 18.7111 61.7727 18.7111H54.5747V14.4444ZM63.9687 29.6H68.7673L64.2127 22.3556C67.0593 21.6 68.686 19.4667 68.686 16.4889C68.686 12.6222 66.1647 10.3556 61.732 10.3556H50.508V29.5556H54.5747V22.6667H59.6987L63.9687 29.6ZM73.1593 20.0444C73.1593 26.0889 77.0633 30 83.6513 30C87.6367 30 90.8087 28.5333 93.2893 25.6889L90.5647 22.8C88.4093 24.9778 86.4573 25.9111 83.6513 25.9111C79.7473 25.9111 77.2667 23.5556 77.2667 20.0444C77.2667 16.5333 79.666 14.0889 83.6513 14.0889C86.0507 14.0889 87.7993 14.8889 89.792 16.6222L92.5167 13.3778C89.9547 11.1111 87.1487 10.0444 83.6513 10.0444C77.3887 10.0444 73.1593 14.1333 73.1593 20.0444ZM106.913 20.9778C106.913 26.8444 110.003 29.9556 115.534 29.9556C121.065 29.9556 123.871 27.1111 123.871 21.9556V10.4H119.804V21.6C119.804 24.1778 118.421 25.8667 115.575 25.8667C112.728 25.8667 110.939 23.9111 110.939 20.4444V19.7333H106.872V20.9778M135.664 21.2889L137.697 16.8444C137.941 16.3111 138.185 15.7778 138.348 15.3333C138.511 15.7778 138.755 16.3111 138.999 16.8444L141.073 21.2889H135.664ZM144.895 29.6H149.287L140.259 10.4H136.64L127.612 29.6H131.882L133.875 25.2444H142.943L144.895 29.6ZM151.646 20.0444C151.646 26.0889 155.55 30 162.138 30C166.123 30 169.295 28.5333 171.776 25.6889L169.051 22.8C166.896 24.9778 164.944 25.9111 162.138 25.9111C158.234 25.9111 155.753 23.5556 155.753 20.0444C155.753 16.5333 158.153 14.0889 162.138 14.0889C164.537 14.0889 166.286 14.8889 168.279 16.6222L171.003 13.3778C168.441 11.1111 165.635 10.0444 162.138 10.0444C155.875 10.0444 151.646 14.1333 151.646 20.0444ZM191.621 20.0444C191.621 23.6 189.303 25.8667 185.806 25.8667C182.309 25.8667 179.991 23.6 179.991 20.0444C179.991 16.4889 182.349 14.0889 185.806 14.0889C189.263 14.0889 191.621 16.4889 191.621 20.0444ZM175.883 20.0444C175.883 25.9556 179.991 29.9556 185.847 29.9556C191.703 29.9556 195.81 25.9556 195.81 20.0444C195.81 14.1333 191.703 10.0444 185.847 10.0444C179.991 10.0444 175.883 14.1778 175.883 20.0444ZM216.428 23.5556C216.428 24.8 215.696 25.6 213.825 25.6H205.367V21.7333H213.866C215.615 21.7333 216.428 22.4 216.428 23.5556ZM213.215 14.3556C214.801 14.3556 215.574 14.9333 215.574 16.0889C215.574 17.2444 214.801 17.7778 213.215 17.7778H205.367V14.3556H213.215ZM220.535 23.5556C220.535 21.5556 219.722 20.2667 218.258 19.2889C219.234 18.3556 219.681 17.1111 219.681 15.6C219.681 12.2222 217.526 10.3556 213.581 10.3556H201.381V29.5556H213.053C217.851 29.6 220.535 27.4667 220.535 23.5556ZM224.317 26.2222C226.879 28.5333 230.499 29.9556 234.809 29.9556C240.828 29.9556 244 27.4667 244 23.6C244 18.8889 239.73 18.0444 235.582 17.6889L234.769 17.6C232.166 17.3778 230.011 17.0667 230.011 15.7778C230.011 14.6222 231.393 13.9111 234.159 13.9111C236.639 13.9111 238.957 14.7556 240.991 16.2667L243.105 12.8444C240.869 10.9778 237.575 10 234.484 10C227.855 10 225.863 13.0667 225.863 15.9111C225.863 20.5333 230.255 21.4222 234.037 21.7778L234.85 21.8667C237.737 22.1333 239.811 22.3556 239.811 23.8667C239.811 25.2889 238.022 25.9556 234.931 25.9556C231.678 25.9556 229.197 24.8889 226.595 22.8889L224.317 26.2222Z" fill="black"/>
</g>
<defs>
<clipPath id="clip0_89_1722">
<rect width="244" height="20" fill="white" transform="translate(0 10)"/>
</clipPath>
</defs>
</svg>
