<svg width="149" height="40" viewBox="0 0 149 40" fill="none" xmlns="http://www.w3.org/2000/svg">
<g clip-path="url(#clip0_89_1699)">
<g clip-path="url(#clip1_89_1699)">
<path d="M4.89271 24.7843C4.89271 26.5089 5.27235 27.833 5.76855 28.634C6.41913 29.6832 7.38948 30.1277 8.37873 30.1277C9.65468 30.1277 10.8219 29.812 13.0714 26.7099C14.8735 24.2236 16.9969 20.7335 18.4257 18.5455L20.8452 14.8387C22.526 12.2644 24.4714 9.40262 26.702 7.46283C28.523 5.87958 30.4873 5 32.4642 5C35.7833 5 38.9448 6.9178 41.3644 10.5147C44.0124 14.4539 45.2978 19.4157 45.2978 24.5361C45.2978 27.5801 44.696 29.8168 43.6721 31.5838C42.6829 33.2927 40.7548 35 37.5113 35V30.1277C40.2885 30.1277 40.9816 27.5832 40.9816 24.6712C40.9816 20.5215 40.0112 15.9162 37.8736 12.6257C36.3567 10.2916 34.3908 8.86545 32.228 8.86545C29.8887 8.86545 28.0063 10.6246 25.8907 13.7613C24.766 15.4277 23.6114 17.4586 22.3149 19.7503L20.8878 22.2712C18.0208 27.3398 17.2946 28.4942 15.8612 30.3995C13.3486 33.7356 11.2031 35 8.37873 35C5.02818 35 2.90948 33.5534 1.5973 31.3733C0.526132 29.5969 0 27.266 0 24.6099L4.89271 24.7843Z" fill="black"/>
<path d="M3.85742 10.8586C6.10057 7.41099 9.3377 5 13.0506 5C15.2008 5 17.3384 5.63455 19.5705 7.45183C22.0121 9.43874 24.6144 12.7105 27.861 18.1026L29.0251 20.0377C31.8354 24.7058 33.4342 27.1073 34.3699 28.2398C35.5734 29.6942 36.4162 30.1277 37.511 30.1277C40.2881 30.1277 40.9812 27.5832 40.9812 24.6712L45.2974 24.5361C45.2974 27.5801 44.6957 29.8168 43.6718 31.5838C42.6825 33.2927 40.7544 35 37.511 35C35.4947 35 33.7083 34.5634 31.733 32.7052C30.2144 31.2791 28.4391 28.7455 27.0734 26.4681L23.0108 19.7016C20.9725 16.3058 19.1027 13.7738 18.0205 12.6272C16.8564 11.3942 15.3599 9.90524 12.9718 9.90524C11.039 9.90524 9.39756 11.2576 8.02395 13.3262L3.85742 10.8586Z" fill="url(#paint0_linear_89_1699)"/>
<path d="M12.9722 9.90524C11.0393 9.90524 9.39792 11.2576 8.0243 13.3262C6.08202 16.2492 4.89271 20.6031 4.89271 24.7843C4.89271 26.5089 5.27235 27.833 5.76855 28.634L1.5973 31.3733C0.526132 29.5969 0 27.266 0 24.6099C0 19.7801 1.32951 14.7461 3.85778 10.8586C6.10093 7.41099 9.33806 5 13.0509 5L12.9722 9.90524Z" fill="url(#paint1_linear_89_1699)"/>
<path d="M54.8086 5.94922H60.4685L70.0916 23.3084L79.7164 5.94922H85.2534V34.4728H80.6363V12.612L72.1962 27.7503H67.8642L59.4256 12.612V34.4728H54.8086V5.94922ZM99.7204 16.5843C96.4093 16.5843 94.415 19.0691 93.9377 22.1461H105.176C104.944 18.9764 103.11 16.5843 99.7204 16.5843ZM89.36 23.899C89.36 17.4246 93.5565 12.7126 99.8008 12.7126C105.943 12.7126 109.61 17.3649 109.61 24.2445V25.5089H93.9377C94.4938 28.856 96.7212 31.1115 100.313 31.1115C103.178 31.1115 104.969 30.2398 106.667 28.6456L109.12 31.6408C106.809 33.7597 103.87 34.9817 100.149 34.9817C93.3895 34.9817 89.36 30.067 89.36 23.899ZM115.208 16.9927H110.958V13.223H115.208V6.98901H119.663V13.223H126.12V16.9927H119.663V26.5471C119.663 29.8094 120.709 30.9686 123.28 30.9686C124.453 30.9686 125.126 30.8681 126.12 30.7031V34.4319C124.882 34.7806 123.7 34.9408 122.421 34.9408C117.612 34.9408 115.208 32.3209 115.208 27.0764V16.9927ZM144.878 20.6586C143.983 18.4063 141.987 16.7476 139.054 16.7476C135.242 16.7476 132.802 19.4445 132.802 23.8377C132.802 28.1209 135.048 30.9482 138.872 30.9482C141.877 30.9482 144.023 29.2047 144.878 27.0356V20.6586ZM149.333 34.4728H144.96V31.4979C143.738 33.2492 141.513 34.9817 137.911 34.9817C132.117 34.9817 128.245 30.1456 128.245 23.8377C128.245 17.4702 132.21 12.7126 138.156 12.7126C141.096 12.7126 143.402 13.8843 144.96 15.9529V13.223H149.333V34.4728Z" fill="black"/>
</g>
</g>
<defs>
<linearGradient id="paint0_linear_89_1699" x1="9.60865" y1="23.377" x2="40.7981" y2="24.9568" gradientUnits="userSpaceOnUse">
<stop/>
</linearGradient>
<linearGradient id="paint1_linear_89_1699" x1="7.08861" y1="26.8325" x2="7.08861" y2="15.3665" gradientUnits="userSpaceOnUse">
<stop offset="1"/>
</linearGradient>
<clipPath id="clip0_89_1699">
<rect width="149" height="40" fill="white"/>
</clipPath>
<clipPath id="clip1_89_1699">
<rect width="149.333" height="30" fill="white" transform="translate(0 5)"/>
</clipPath>
</defs>
</svg>
