<svg width="1200" height="160" viewBox="0 0 1200 160" fill="none" xmlns="http://www.w3.org/2000/svg">
<path d="M118.848 80.7061C118.848 104.219 113.429 123.318 102.577 138.032C91.8058 152.678 77.7454 160 60.3957 160C45.0412 160 31.8705 154.374 20.8837 143.121C7.05252 128.876 0.150391 107.515 0.150391 78.9961C0.150391 50.4778 7.36258 30.8266 21.8004 16.3743C32.5041 5.65924 45.2165 0.308594 59.897 0.308594C77.9207 0.308594 92.2237 7.54851 102.887 22.0697C113.55 36.5909 118.862 56.1318 118.862 80.7061M75.0897 81.0647C75.0897 52.7394 70.0749 38.5629 60.1127 38.5629C55.1248 38.5629 51.148 42.2863 48.1687 49.7193C45.2704 56.6283 43.8279 66.7641 43.8279 80.1407C43.8279 93.5173 45.203 103.557 47.9126 110.824C50.6492 118.092 54.4373 121.732 59.3038 121.732C64.1703 121.732 68.1202 118.147 70.8164 110.976C73.6473 103.805 75.0763 93.8483 75.0763 81.0509" fill="white"/>
<path d="M200.541 0.308594H242.709V111.321C242.709 120.602 241.253 128.117 238.355 133.882C235.524 139.908 230.806 145.355 224.187 150.237C215.303 156.746 204.464 160 191.725 160C177.314 160 165.208 156.415 155.435 149.23C143.046 140.087 136.858 125.442 136.858 105.322V0.308594H178.986V102.715C178.986 109.638 179.835 114.534 181.48 117.416C183.124 120.298 185.915 121.732 189.838 121.732C193.761 121.732 196.659 120.395 198.209 117.719C199.759 114.92 200.541 109.942 200.541 102.812V0.308594Z" fill="white"/>
<path d="M319.05 160H276.882V38.5629H253.628V0.308594H343.207V38.5629H319.05V160Z" fill="white"/>
<path d="M354.141 160V0.308594H432.491V38.5629H396.281V58.945H428.756V97.2269H396.281V121.732H432.491V160H354.141Z" fill="white"/>
<path d="M561.501 160H515.909L495.082 103.115C494.88 102.15 494.516 100.881 494.017 99.2955C493.504 97.7096 492.871 95.8203 492.156 93.6139L492.453 104.15V160H450.501V0.308594H493.68C512.674 0.308594 526.896 4.12852 536.333 11.7821C548.331 21.5733 554.343 35.5015 554.343 53.5668C554.343 72.8732 546.282 86.2223 530.159 93.6001L561.501 160ZM492.669 71.9769H495.486C500.326 71.9769 504.37 70.0876 507.605 66.2953C510.841 62.5029 512.485 57.6763 512.485 51.8154C512.485 39.9006 506.365 33.9294 494.179 33.9294H492.682V71.9907L492.669 71.9769Z" fill="white"/>
<path d="M680.657 0.322266H639.743V159.89H680.657V0.322266Z" fill="white"/>
<path d="M856.365 159.89H814.966L813.281 87.1186L811.946 58.09C811.474 63.6613 810.949 68.9844 810.355 74.0454C809.735 79.1065 808.98 84.0158 808.091 88.7735L794.704 159.876H760.706L749.706 88.6769C749.059 84.5398 748.182 77.4516 747.05 67.3847C746.942 65.8678 746.645 62.7787 746.201 58.09L745.217 87.5323L741.59 159.876H698.021L715.694 0.308594H766.61L775.144 54.0495C775.858 58.4624 776.505 63.2476 777.072 68.4328C777.638 73.5903 778.15 79.1892 778.595 85.2569C779.431 75.1348 780.576 66.0746 782.032 58.09L792.224 0.322387H841.658L856.379 159.89H856.365Z" fill="white"/>
<path d="M984.971 159.89H942.695L939.622 139.632H912.067L908.751 159.89H866.462L902.86 0.322266H952.873L984.958 159.89H984.971ZM934.863 106.039L932.207 87.4495C932.14 87.3805 932.019 86.4428 931.83 84.65C931.668 83.1469 930.981 77.1481 929.727 66.6813C929.606 65.5091 929.444 63.8956 929.255 61.8684C929.053 59.8413 928.77 57.2763 928.473 54.1597L927.179 39.0731C927.071 40.5072 926.882 42.1345 926.667 43.9272C926.411 45.72 926.182 47.6782 925.925 49.8157C925.454 54.0907 925.144 57.0556 924.941 58.7105C924.753 60.3653 924.618 61.3582 924.55 61.703L921.706 81.0232L917.581 106.039H934.877H934.863Z" fill="white"/>
<path d="M1049.53 67.605H1106.65V74.0313C1106.65 103.86 1102.28 125.317 1093.58 138.432C1084.09 152.746 1070.06 159.904 1051.5 159.904C1032.93 159.904 1018.92 152.912 1008.52 138.956C998.182 124.849 993.019 105.487 993.019 80.8713C993.019 56.2555 998.209 36.2734 1008.64 21.8901C1019.02 7.52057 1033.26 0.349609 1051.31 0.349609C1075.25 0.349609 1092.61 13.4366 1103.41 39.6244L1063.77 54.9317C1063.19 49.912 1061.82 45.9266 1059.69 42.9893C1057.58 40.0519 1054.91 38.5902 1051.69 38.5902C1040.44 38.5902 1034.85 53.8974 1034.85 84.4981C1034.85 97.4886 1036.08 106.949 1038.56 112.837C1041.05 118.726 1045 121.663 1050.43 121.663C1052.58 121.663 1054.54 121.18 1056.31 120.201C1058.06 119.236 1059.57 117.857 1060.77 116.092C1061.97 114.327 1062.93 112.189 1063.62 109.652C1064.3 107.114 1064.66 104.315 1064.66 101.198H1049.54V67.605H1049.53Z" fill="white"/>
<path d="M1124.11 159.888V0.333984H1200.15V38.5607H1165.03V58.929H1196.52V97.1558H1165.03V121.647H1200.15V159.888H1124.11Z" fill="white"/>
</svg>
