<svg xmlns="http://www.w3.org/2000/svg" width="150" height="28" viewBox="0 0 150 28" fill="none">
<path d="M18.3892 14.0621C18.3892 16.7143 17.7779 18.8687 16.5538 20.5285C15.3388 22.1805 13.7528 23.0065 11.7957 23.0065C10.0637 23.0065 8.57805 22.3718 7.33873 21.1025C5.77856 19.4956 5 17.0861 5 13.8692C5 10.6523 5.81354 8.43561 7.44214 6.80539C8.64952 5.59672 10.0835 4.99316 11.7394 4.99316C13.7725 4.99316 15.3859 5.80983 16.5887 7.44783C17.7916 9.08583 18.3907 11.2901 18.3907 14.0621M13.4532 14.1025C13.4532 10.9074 12.8875 9.30828 11.7638 9.30828C11.2011 9.30828 10.7526 9.72828 10.4165 10.5667C10.0896 11.3461 9.92685 12.4894 9.92685 13.9983C9.92685 15.5072 10.082 16.6396 10.3876 17.4594C10.6963 18.2792 11.1236 18.6898 11.6725 18.6898C12.2215 18.6898 12.667 18.2854 12.9712 17.4765C13.2905 16.6676 13.4517 15.5445 13.4517 14.1009" fill="black"/>
<path d="M27.5741 4.99316H32.3306V17.5154C32.3306 18.5623 32.1664 19.4101 31.8395 20.0603C31.5201 20.7401 30.9879 21.3545 30.2413 21.9052C29.2392 22.6394 28.0166 23.0065 26.5796 23.0065C24.954 23.0065 23.5885 22.6021 22.4861 21.7916C21.0886 20.7603 20.3906 19.1083 20.3906 16.8387V4.99316H25.1426V16.5447C25.1426 17.3256 25.2384 17.8778 25.4239 18.2029C25.6094 18.5281 25.9242 18.6898 26.3667 18.6898C26.8092 18.6898 27.1362 18.5389 27.311 18.2372C27.4859 17.9214 27.5741 17.3598 27.5741 16.5556V4.99316Z" fill="black"/>
<path d="M41.7097 23.0065H36.9532V9.30828H34.3301V4.99316H44.4347V9.30828H41.7097V23.0065Z" fill="black"/>
<path d="M46.4355 23.0065V4.99316H55.2735V9.30828H51.189V11.6074H54.8523V15.9256H51.189V18.6898H55.2735V23.0065H46.4355Z" fill="black"/>
<path d="M69.7943 23.0065H64.6515L62.3022 16.5898C62.2794 16.4809 62.2383 16.3378 62.182 16.1589C62.1243 15.9801 62.0528 15.7669 61.9722 15.5181L62.0056 16.7065V23.0065H57.2734V4.99316H62.144C64.2866 4.99316 65.8909 5.42405 66.9553 6.28739C68.3087 7.39183 68.9869 8.96294 68.9869 11.0007C68.9869 13.1785 68.0775 14.6843 66.2589 15.5165L69.7943 23.0065ZM62.03 13.0774H62.3478C62.8937 13.0774 63.3499 12.8643 63.7148 12.4365C64.0798 12.0087 64.2653 11.4643 64.2653 10.8032C64.2653 9.45916 63.5749 8.78561 62.2003 8.78561H62.0315V13.0789L62.03 13.0774Z" fill="black"/>
<path d="M84.41 4.99316H79.7949V22.9925H84.41V4.99316Z" fill="black"/>
<path d="M104.272 22.9941H99.6017L99.4116 14.7854L99.261 11.5109C99.2078 12.1394 99.1485 12.7398 99.0816 13.3107C99.0116 13.8816 98.9265 14.4354 98.8261 14.9721L97.3161 22.9925H93.4811L92.2403 14.9612C92.1673 14.4945 92.0684 13.6949 91.9407 12.5594C91.9285 12.3883 91.8951 12.0398 91.8449 11.5109L91.7339 14.8321L91.3248 22.9925H86.4102L88.4037 4.99316H94.1471L95.1097 11.0552C95.1903 11.5529 95.2633 12.0927 95.3272 12.6776C95.391 13.2594 95.4488 13.8909 95.499 14.5754C95.5933 13.4336 95.7225 12.4116 95.8867 11.5109L97.0363 4.99472H102.613L104.273 22.9941H104.272Z" fill="black"/>
<path d="M119.641 22.9925H114.873L114.526 20.7074H111.418L111.044 22.9925H106.273L110.379 4.99316H116.021L119.64 22.9925H119.641ZM113.989 16.9181L113.69 14.8212C113.682 14.8134 113.668 14.7076 113.647 14.5054C113.629 14.3358 113.551 13.6592 113.41 12.4785C113.396 12.3463 113.378 12.1643 113.357 11.9356C113.334 11.7069 113.302 11.4176 113.268 11.0661L113.122 9.36427C113.11 9.52605 113.089 9.70961 113.065 9.91183C113.036 10.1141 113.01 10.3349 112.981 10.5761C112.928 11.0583 112.893 11.3927 112.87 11.5794C112.849 11.7661 112.833 11.8781 112.826 11.9169L112.505 14.0963L112.04 16.9181H113.991H113.989Z" fill="black"/>
<path d="M128.015 12.5796H134.458V13.3045C134.458 16.6692 133.965 19.0896 132.985 20.5689C131.914 22.1836 130.331 22.9909 128.237 22.9909C126.143 22.9909 124.562 22.2023 123.389 20.6281C122.223 19.0367 121.641 16.8527 121.641 14.0761C121.641 11.2994 122.226 9.04539 123.403 7.42294C124.574 5.80205 126.18 4.99316 128.216 4.99316C130.916 4.99316 132.875 6.46939 134.093 9.42339L129.621 11.1501C129.556 10.5838 129.402 10.1343 129.162 9.80294C128.923 9.47161 128.622 9.30672 128.258 9.30672C126.99 9.30672 126.359 11.0334 126.359 14.4852C126.359 15.9505 126.498 17.0176 126.777 17.6818C127.059 18.3461 127.504 18.6774 128.117 18.6774C128.359 18.6774 128.581 18.6229 128.78 18.5125C128.978 18.4036 129.148 18.2481 129.283 18.0489C129.419 17.8498 129.527 17.6087 129.604 17.3225C129.682 17.0363 129.721 16.7205 129.721 16.3689H128.017V12.5796H128.015Z" fill="black"/>
<path d="M136.459 22.9909V4.99316H145.037V9.30516H141.076V11.6027H144.628V15.9147H141.076V18.6774H145.037V22.9909H136.459Z" fill="black"/>
</svg>