<svg width="40" height="40" viewBox="0 0 40 40" fill="none" xmlns="http://www.w3.org/2000/svg">
<path fill-rule="evenodd" clip-rule="evenodd" d="M23.4609 9.29388C23.7863 8.96845 24.3139 8.96845 24.6394 9.29388L34.7561 19.4105C34.9123 19.5668 35.0001 19.7788 35.0001 19.9998C35.0001 20.2208 34.9123 20.4328 34.7561 20.5891L24.6394 30.7057C24.3139 31.0312 23.7863 31.0312 23.4609 30.7057C23.1354 30.3803 23.1354 29.8527 23.4609 29.5272L32.9883 19.9998L23.4609 10.4724C23.1354 10.147 23.1354 9.61932 23.4609 9.29388Z" fill="black"/>
<path fill-rule="evenodd" clip-rule="evenodd" d="M5 20.0003C5 19.5401 5.3731 19.167 5.83333 19.167H33.8833C34.3436 19.167 34.7167 19.5401 34.7167 20.0003C34.7167 20.4606 34.3436 20.8337 33.8833 20.8337H5.83333C5.3731 20.8337 5 20.4606 5 20.0003Z" fill="black"/>
</svg>
