<svg width="40" height="40" viewBox="0 0 40 40" fill="none" xmlns="http://www.w3.org/2000/svg">
<path fill-rule="evenodd" clip-rule="evenodd" d="M7.74408 32.2559C7.41864 31.9305 7.41864 31.4028 7.74408 31.0774L31.0774 7.74408C31.4028 7.41864 31.9305 7.41864 32.2559 7.74408C32.5814 8.06952 32.5814 8.59715 32.2559 8.92259L8.92259 32.2559C8.59715 32.5814 8.06952 32.5814 7.74408 32.2559Z" fill="black"/>
<path fill-rule="evenodd" clip-rule="evenodd" d="M31.6667 26.2822C31.2064 26.2822 30.8333 25.9091 30.8333 25.4489V9.16556H14.55C14.0898 9.16556 13.7167 8.79247 13.7167 8.33223C13.7167 7.87199 14.0898 7.49889 14.55 7.49889H31.6667C32.1269 7.49889 32.5 7.87199 32.5 8.33223V25.4489C32.5 25.9091 32.1269 26.2822 31.6667 26.2822Z" fill="black"/>
</svg>
